<svg xmlns="http://www.w3.org/2000/svg" width="610" height="452" fill="none" viewBox="0 0 610 452"><path fill="#ECEDEE" fill-rule="evenodd" d="M477.44 195.18c-14.87.63-12.35-1.89-26.8 29.94-7.54 16.76-10.89 21-30 39.79-15.9 15.71-23.41 21.84-36.77 29.06 14.43 1.59 28.67 3.55 42.42 5.71 18.41-15.08 33.55-31.57 42.94-47.12 9.21-15.5 21.15-44.61 21.15-52.15.05-5.86.05-5.86-12.94-5.23Z" clip-rule="evenodd"/><path fill="#ECEDEE" fill-rule="evenodd" d="M595.35 170.89c-15.71-7.54-62.2-19.27-84.4-21.16l-13.82-1.25-1.47-16.13c-2.51-31.62-13.19-79.37-18.64-84-4-3.36-26.8 1.67-53 11.51-23 8.59-29.94 12.57-29.94 17 0 5.86 8.37 19.47 12.14 19.47 2.1 0 13.82-3.77 26.18-8.37 12.14-4.61 23-8.38 24.08-8.38 3.35 0 7.54 26.8 7.54 49l.21 20.73-12.56 2.52c-6.92 1.46-20.53 5-30.37 8.17-18.64 5.65-20.94 5.23-20.94-4.19 0-6.29-9.43-37.91-15.71-53.61C371.9 71 316.4 0 304.46 0c-2.3 0-10.26 6.49-18.84 15.5-18.64 19.68-40.21 46.7-40.21 50.47 0 3.35 10.89 12.77 17.17 14.87 5 1.46 5.45 1 26.39-25.13 6.07-7.75 12.35-14.45 13.82-15.08 1.67-.63 6.7 2.93 11.52 8 10.26 10.69 33.71 44.19 33.71 48 0 1.47-8.79 11.73-19.26 22.62-10.68 11.1-20.53 22-21.78 24.08-1.89 3.77-2.93 2.93-11.73-8.37-24.29-31.63-59.47-55.5-110.15-74.35-23.46-9-47.12-14.87-51.73-13.19-4.4 1.67-8.8 15.08-13.4 39.79-4 21.78-5.45 33.5-4.61 40.83.21 4.19 20.1 7.54 24.29 4 1.47-1.25 3.77-10 5.24-19.47 1.25-9.43 3.35-20.73 4.4-25.13 2.51-9.22.2-9.22 30.36 1.88 19.27 7.12 37.49 16.34 39.79 19.9.63 1-.84 7.75-3.14 15.08-2.3 7.12-5.24 18.63-6.7 25.54s-3.14 13.2-3.77 14c-.84.84-10.26-1.25-21.15-4.6-38.75-12.15-91.73-12.57-133.61-1C22.59 165.99.39 175.83.39 180.65c0 1.25 6.28 8.38 13.82 16.12 16.75 16.55 22 24.09 36.44 51.52 14.8 27.88 29.21 49 45.28 65.15a1676 1676 0 0 1 37.51-6.69 143.011 143.011 0 0 1-14.73-11.76c-15.08-13.82-26.39-30-43.56-62.41-6.49-12.14-15.08-26.59-19.06-32.46-5.23-7.33-6.7-10.68-4.81-11.72 6.91-3.77 43.77-9.85 56.75-9.43 5.86.21 6.07.63 10.89 21.36 8.68 39.3 29.38 72.29 62.43 99.24 14.21-1.89 29.1-3.65 44.31-5.14-43.94-25.32-72.57-63.06-79.73-105.82l-1.46-9 9.63 1.47a184.31 184.31 0 0 1 24.09 6.49c27.43 9.21 29.1 10.47 31.62 23.45 5.35 25.74 19.21 57.53 35.2 81.68 11.3-.9 22.69-1.64 34-2.14-30.85-40.29-46.85-84.56-43.08-121.42 1.26-14 8.38-41.25 10.68-41.25.63 0 6.29 5 12.78 10.88 15.71 15.08 22.2 24.93 33.72 52.15 5.44 12.77 10.68 23.45 11.72 23.66 1 0 4.82-7.74 8.59-17.59a293.366 293.366 0 0 1 12.4-28.83c6.71-12.35 31.63-40.41 35.82-40.41 1.88 0 4.18 5.86 6.7 16.12 4.6 20.73 4.6 53.19-.21 71.83-5.67 22.35-20.64 50.8-38.35 74.26 11.45.38 23 1.1 34.51 2.08.81-1.38 1.67-2.82 2.58-4.3 14.66-23.87 25.13-48.17 30.37-70 2.09-8.58 4.6-16.75 5.65-18.21 3.35-4.19 33.93-15.08 51.31-18.22 20.1-3.56 45.44-4 66.59-1.05a197.937 197.937 0 0 1 27.44 5.65l11.51 3.56-6.07 8.38c-3.56 4.61-13 21.15-21.36 36.65-8.17 15.49-18.64 32.88-22.83 38.74a157.204 157.204 0 0 1-36.23 34.8c13.39 2.69 25.77 5.4 36.76 7.95 17.74-16.82 32.22-38.33 55.81-81.7 6.07-11.31 15.29-23.67 26.8-35.6 9.43-10 17.18-18.85 17.18-19.48.02-.79-6.5-4.56-14.45-8.32Z" clip-rule="evenodd"/><path fill="#ECEDEE" d="M86.57 396c3-.17 4.67 1.37 5.06 4.6 1.094 7.753-.94 14.83-6.1 21.23a35.673 35.673 0 0 1-19.24 12.59c-11.22 2.9-21.093 1.93-29.62-2.91-8.527-4.84-14.237-12.87-17.13-24.09-2.873-11.073-1.68-20.81 3.58-29.21 5.26-8.4 13.424-14.033 24.49-16.9 9.4-2.28 17.317-1.83 23.75 1.35 6.434 3.18 10.224 7.88 11.37 14.1.72 4.52-.2 8.16-2.73 10.94a17.469 17.469 0 0 1-8.5 5.38 16 16 0 0 1-9.61-.7c-3.426-1.233-5.577-3.253-6.45-6.06-.4-.35-.24-.62.47-.8a7.89 7.89 0 0 0 3.92-3.29c1.087-1.64 1.284-3.81.59-6.51-1.333-5.113-4.48-7.027-9.44-5.74-3.62 1.24-5.713 4.85-6.28 10.83-.566 5.98.473 12.647 3.12 20 2.22 6.253 5.307 10.72 9.26 13.4a13.932 13.932 0 0 0 12.26 2.17c6.667-1.727 10.417-6.56 11.25-14.5.4-3.127 1.807-5.007 4.22-5.64a5.856 5.856 0 0 1 1.76-.24ZM129.32 343.71c10.573-1.74 19.907.367 28 6.32s13.02 14.21 14.78 24.77c1.78 10.853-.15 20.347-5.79 28.48s-13.893 13.097-24.76 14.89c-10.847 1.787-20.25-.27-28.21-6.17-7.96-5.9-12.833-14.277-14.62-25.13-1.76-10.707.22-20.137 5.94-28.29 5.72-8.153 13.94-13.11 24.66-14.87Zm10.26 16.26c-3-5.23-5.86-7.62-8.76-7.14-2.9.48-4.89 3.67-6 9.57a58.206 58.206 0 0 0 .19 20.15 56.917 56.917 0 0 0 6.42 19.34c3.013 5.227 5.893 7.613 8.64 7.16 2.747-.453 4.713-3.637 5.9-9.55a57.2 57.2 0 0 0-.12-20.38 58.36 58.36 0 0 0-6.27-19.12v-.03ZM236.5 396.16c12.62 3.067 19.073 10.693 19.36 22.88.14 6.913-2.62 13.07-8.28 18.47-5.66 5.4-14.26 8.586-25.8 9.56-.58 0-1.43.08-2.53.1-1.1.02-2 .06-2.53.1-8.953.307-16.703-1.287-23.25-4.78-6.547-3.494-9.84-8.11-9.88-13.85.04-8.247 4.593-12.75 13.66-13.51 3.807-.173 6.893.67 9.26 2.53a10.92 10.92 0 0 1 4.26 6 .862.862 0 0 1-.58.93 4.75 4.75 0 0 0-2.93 2 5.275 5.275 0 0 0-1 3.62c.32 2 1.77 3.61 4.37 4.71a21.422 21.422 0 0 0 9.39 1.42c9.647-.814 15.523-3.587 17.63-8.32 1.11-2.6 1-4.72-.32-6.38-2-2.92-6.19-4.627-12.57-5.12-.153 0-3.94-.42-11.36-1.26l-11.17-1.49-3.12-.4c-5.953-.667-10.287-2.697-13-6.09a16.871 16.871 0 0 1-3.93-11.26 17.653 17.653 0 0 1 2.81-8.62c1.687-2.667 3.463-4.29 5.33-4.87-7.427-4.367-11.49-10.72-12.19-19.06-.733-8.62 2.353-15.65 9.26-21.09a43.758 43.758 0 0 1 24-9.3 13.867 13.867 0 0 1-1-6.1 17 17 0 0 1 4.92-11c3.053-3.2 7.937-5.08 14.65-5.64a25.229 25.229 0 0 1 13.36 2.66c4.38 2.14 6.747 5.326 7.1 9.56a9.87 9.87 0 0 1-2.33 7.81 11.31 11.31 0 0 1-7.77 3.41c-5.56.473-8.97-.71-10.23-3.55-.31-.12-.26-.42.14-.9 1.71-.73 2.31-2.25 1.82-4.57a5.86 5.86 0 0 0-1.88-2.71 5.004 5.004 0 0 0-4-1.21c-2.93.24-4.7 1.87-5.34 4.86-.387 4.16 1.163 6.827 4.65 8a36.615 36.615 0 0 1 17.22 7.94 22.41 22.41 0 0 1 7.73 15.8c.76 9.06-2.32 16.2-9.24 21.42a46.554 46.554 0 0 1-24.63 9 48.363 48.363 0 0 1-19.15-1.93c1 3.16 5.447 5.29 13.34 6.39l11.27 1.48c4.09.54 7.26 1 9.49 1.3 1.689.22 3.357.575 4.99 1.06Zm-16.18-50.74c-2.393-3.92-4.977-5.767-7.75-5.54-2.773.227-5.013 2.477-6.72 6.75a35.701 35.701 0 0 0 2.43 28.94c2.387 3.92 4.97 5.763 7.75 5.53 2.78-.234 5.02-2.48 6.72-6.74a35.797 35.797 0 0 0 1.85-14.728 35.794 35.794 0 0 0-4.28-14.212ZM294.24 386.35a24.912 24.912 0 0 0 1.28 8c.78 2.11 1.61 3.49 2.51 4.13a27.503 27.503 0 0 0 2.45 1.59c.74.43 1.12.79 1.13 1.08v.88a.78.78 0 0 1-.86.9l-38.06.83a.579.579 0 0 1-.67-.65l-.2-1.11c0-.29.57-.71 1.73-1.25a8.765 8.765 0 0 0 3.44-3.81c1.13-2 1.65-4.84 1.57-8.51l-.88-40.47a6.458 6.458 0 0 0-1.87-4.91 6.225 6.225 0 0 0-4.44-1.56.762.762 0 0 1-.662-.206.773.773 0 0 1-.228-.654l-.06-2.41c0-1 .41-1.55 1.29-1.57a53.433 53.433 0 0 0 8.89-1c2.402-.436 4.779-1 7.12-1.69 1.74-.55 3.82-1.33 6.22-2.34 2.4-1.01 3.88-1.59 4.47-1.75a5.997 5.997 0 0 1 1.75-.26c.416-.013.83.055 1.22.2.372.144.685.408.89.75.222.347.416.712.58 1.09.17.454.255.935.25 1.42v4.18l1.14 49.1Zm-15.56-57.76a14.049 14.049 0 0 1-10-3.63 12.54 12.54 0 0 1-.41-18.7 14.112 14.112 0 0 1 9.81-4.06 14.397 14.397 0 0 1 10.2 3.63 12.52 12.52 0 0 1 4.389 9.253 12.521 12.521 0 0 1-3.979 9.437 14.35 14.35 0 0 1-10.01 4.07ZM303.87 341.57l.17-6.38c0-1.17.41-1.75 1.14-1.73a30.325 30.325 0 0 0 8.52-2 12.258 12.258 0 0 0 5.39-4.15 22.063 22.063 0 0 0 2.65-4.55c.467-1.24 1.023-3.023 1.67-5.35a12.53 12.53 0 0 1 5.7-7.67 15.29 15.29 0 0 1 8.65-2.75c2.78.07 4.16 1.06 4.11 3l-.64 25.29 15 .16c.88 0 1.3.63 1.27 1.8l-.14 5.71c0 1.18-.49 1.75-1.37 1.73l-15-.38-1.17 28.58c-.9 12.16.7 18.437 4.8 18.83 2.787.067 5.617-1.476 8.49-4.63.3-.28.52-.42.67-.42 1 0 1.38.55 1.06 1.57-.667 3.647-2.883 7.11-6.65 10.39-3.767 3.28-9.1 4.834-16 4.66a19.048 19.048 0 0 1-13.08-5.07c-3.44-3.24-5.083-7.863-4.93-13.87l1-40.69-10.12-.26c-.79-.05-1.24-.65-1.19-1.82ZM367.56 335.77a.773.773 0 0 1-.745-.647.754.754 0 0 1 .025-.353l.39-2.39c.17-1 .68-1.45 1.55-1.3 2.949.475 5.933.703 8.92.68 3.047 0 5.44-.087 7.18-.26 1.74-.173 3.95-.507 6.63-1 2.69-.52 4.26-.82 4.72-.89a6.884 6.884 0 0 1 2-.11c.406.063.796.202 1.15.41a1.36 1.36 0 0 1 .64.89c.08.38.17.77.25 1.15.09.479.09.971 0 1.45-.1.58-.18 1-.23 1.41-.05.41-.14.84-.24 1.41-.1.57-.16 1-.21 1.3l-6.09 36.91c0 .14-.17.82-.44 2a17.132 17.132 0 0 0-.47 2.82c0 .67-.08 1.59-.12 2.77a9.418 9.418 0 0 0 .37 3.18 9.24 9.24 0 0 0 1.34 2.68 7.64 7.64 0 0 0 4.89 2.81c5.213.86 13.25-1.233 24.11-6.28a286.32 286.32 0 0 0 29.7-15.84c.82-.46 2.097-1.217 3.83-2.27l4.08-2.45 1-6.08a6.222 6.222 0 0 0-5.23-7.55.57.57 0 0 1-.456-.241.577.577 0 0 1-.084-.509l.43-2.61c.17-1 .69-1.45 1.55-1.3 3.696.62 7.471.6 11.16-.06a62.87 62.87 0 0 0 10.38-2.75 48.578 48.578 0 0 1 6.23-2 6.551 6.551 0 0 1 2-.11c.421.064.816.244 1.14.52.317.271.564.614.72 1 .154.383.277.778.37 1.18.09.476.09.964 0 1.44-.09.58-.17 1-.23 1.41-.06.41-.14.87-.25 1.52-.11.65-.18 1-.2 1.2 6.307-2.233 11.813-3.183 16.52-2.85 9.56 1.573 16.353 4.996 20.38 10.27a29.433 29.433 0 0 1 3.16 6.54c5.333-7.293 13.393-10.2 24.18-8.72 7.527 1.24 13.163 4.473 16.91 9.7 4.28 5.607 5.613 12.293 4 20.06l-4.72 31.33a27.925 27.925 0 0 0-.33 8.09c.307 2.2.84 3.7 1.6 4.5.76.79 1.43 1.46 2 2 .57.54.85 1 .8 1.25l-.14.86c-.1.58-.36.84-.8.76l-37.77-6.22a.592.592 0 0 1-.558-.494.598.598 0 0 1 .018-.266l.18-1.09c0-.28.43-.59 1.15-.92l2.53-1.14a7.863 7.863 0 0 0 3-3.3 19.736 19.736 0 0 0 2.23-6.77l4.76-28.87c1-6.36.59-10.83-1.36-13.38a8.26 8.26 0 0 0-11.58-1.46c-2.867 2.06-4.777 5.537-5.73 10.43-.24 1.44-.573 3.357-1 5.75-.39 2.39-.8 4.88-1.23 7.49-.43 2.61-.8 5.07-1.11 7.4-.31 2.33-.6 4.28-.86 5.87l-.36 2.18a24.998 24.998 0 0 0-.22 8.1 9.64 9.64 0 0 0 1.6 4.5 12.428 12.428 0 0 0 2 1.89c.66.48 1 .87.92 1.16l-.17 1.08c-.08.44-.4.61-1 .51l-37.77-6.22a.587.587 0 0 1-.462-.244.59.59 0 0 1-.078-.516l.17-1.09c0-.14.66-.41 1.92-.8a9.582 9.582 0 0 0 4.1-3.22c1.48-1.767 2.517-4.46 3.11-8.08l4.73-28.65c1.047-6.36.603-10.893-1.33-13.6a9.05 9.05 0 0 0-5.5-3.13c-2.75-.46-6.16.4-10.23 2.55-4.667 2.06-14.253 7.467-28.76 16.22-.65.33-1.6.89-2.84 1.65-1.24.76-2.11 1.32-2.62 1.68a13.35 13.35 0 0 1-2.46 1.38c-9.013 5.06-13.84 7.757-14.48 8.09-.76 7.333-.093 11.457 2 12.37.287.053.397.293.33.72-.56 1.55-2.27 2.71-5.15 3.5a20.153 20.153 0 0 1-8.66.47h-.22a16.506 16.506 0 0 1-11.12-7c-9.587 3.18-17.853 4.18-24.8 3-7.527-1.24-13.193-4.667-17-10.28-3.807-5.614-5.09-12.253-3.85-19.92l5.08-30.83a6.366 6.366 0 0 0-1-5.08 6.082 6.082 0 0 0-3.87-2.35Zm44.24 2.16c.16-1 .68-1.44 1.55-1.3 2.948.485 5.932.715 8.92.69 3 0 5.44-.11 7.18-.27 1.74-.16 3.94-.5 6.63-1l4.72-.9a5.777 5.777 0 0 1 1.77.07c.483.067.95.22 1.38.45.338.216.597.535.74.91.155.378.275.77.36 1.17.09.479.09.971 0 1.45-.1.58-.18 1-.23 1.41l-.26 1.52c-.1.65-.17 1.05-.19 1.19-.427 2.613-1.24 6.863-2.44 12.75-1.2 5.886-1.93 9.633-2.19 11.24a3.594 3.594 0 0 1-2.27 3c-5.373 2.827-10.373 5.27-15 7.33a7.002 7.002 0 0 1-3.87.48 6.378 6.378 0 0 1-5.26-7.33l3.54-21.49a7.253 7.253 0 0 0-.89-5.39 5.559 5.559 0 0 0-3.82-2.53c-.58-.09-.83-.36-.76-.79l.39-2.66Zm34.12 73 .18-1.09c0-.14.66-.41 1.92-.8a9.582 9.582 0 0 0 4.1-3.22c1.48-1.77 2.51-4.46 3.11-8.08l1.36-8.24a6.72 6.72 0 0 1 3.28-5c5.28-3.14 9.64-5.69 13.08-7.65a6.488 6.488 0 0 1 4.59-.81 7.387 7.387 0 0 1 4.68 2.78 6.502 6.502 0 0 1 1.267 2.525c.231.925.256 1.889.073 2.825l-2.72 16.5a24.998 24.998 0 0 0-.22 8.1c.38 2.22 1 3.72 1.71 4.52a16.033 16.033 0 0 0 2.14 1.91c.66.48 1 .87.92 1.16l-.18 1.08c-.07.44-.4.61-1 .51l-37.77-6.23a.578.578 0 0 1-.482-.269.584.584 0 0 1-.038-.551v.03ZM304.82 440s-16-10-24-10v22c8 0 24-10 24-10s16 10 24 10v-22c-8 0-24 10-24 10Z"/></svg>